<svg xmlns="http://www.w3.org/2000/svg" viewBox="0 0 24 24" fill="none" stroke="currentColor" stroke-width="1.5" stroke-linecap="round" stroke-linejoin="round">
  <path d="M20.3 4.4A19.5 19.5 0 0 0 15.4 3c-.2.4-.5.9-.7 1.3a18 18 0 0 0-5.4 0C9.1 3.9 8.8 3.4 8.6 3A19.4 19.4 0 0 0 3.7 4.4C.5 9.1-.3 13.7.1 18.3a19.7 19.7 0 0 0 6 3c.5-.7.9-1.4 1.3-2.2-.7-.3-1.4-.6-2-1l.5-.4a14 14 0 0 0 12.2 0l.5.4c-.7.4-1.4.7-2.1 1 .4.8.8 1.5 1.3 2.2a19.6 19.6 0 0 0 6-3c.5-5.2-.9-9.7-3.5-13.9z"/>
  <circle cx="8.5" cy="13" r="1.5"/>
  <circle cx="15.5" cy="13" r="1.5"/>
</svg>
